<svg width="48" height="48" viewBox="0 0 48 48" fill="none" xmlns="http://www.w3.org/2000/svg">
<path d="M23.8883 34.4997C17.3635 34.4063 11.6096 32.2874 6.69822 27.9545C6.67665 27.9352 6.65332 27.9171 6.63233 27.8967C6.48132 27.7486 6.38277 27.576 6.52854 27.383C6.66441 27.2035 6.84925 27.2402 7.02709 27.337C7.53029 27.6105 8.02708 27.8949 8.5373 28.1544C11.9763 29.9025 15.609 31.0343 19.4277 31.583C21.7816 31.9212 24.1449 32.0274 26.5163 31.8664C29.5338 31.6612 32.4767 31.0705 35.3402 30.0926C36.0749 29.8419 36.8015 29.5696 37.5169 29.2681C37.5793 29.2419 37.6446 29.2203 37.7099 29.2034C38.0254 29.1241 38.2912 29.2256 38.4108 29.4687C38.5227 29.6974 38.4458 29.9539 38.1805 30.1515C37.7053 30.5049 37.2102 30.8302 36.6988 31.13C33.9402 32.7475 30.953 33.7008 27.8066 34.1912C26.5099 34.3929 25.2043 34.4997 23.8883 34.4997Z" fill="#FE9503"/>
<path d="M24.511 16.3353C24.3064 16.607 24.2679 16.9149 24.1968 17.2094C23.6778 19.3598 23.17 21.5126 22.6574 23.6642C22.5682 24.0391 22.4119 24.1645 22.0253 24.1697C21.6662 24.1744 21.3064 24.1714 20.9472 24.1703C20.6825 24.1697 20.4871 24.0747 20.3775 23.8099C20.1437 23.2449 19.9985 22.6514 19.8166 22.0706C19.4259 20.824 19.0591 19.5703 18.6808 18.3201C18.2883 17.0245 17.8767 15.7341 17.5081 14.4315C17.3623 13.9167 17.4965 13.7779 17.9688 13.7942C18.2597 13.8041 18.5519 13.7901 18.8429 13.7977C19.269 13.8082 19.4241 13.9062 19.535 14.319C19.8108 15.3458 20.065 16.3784 20.3273 17.4088C20.6965 18.8601 21.065 20.3119 21.4335 21.7633C21.4422 21.7977 21.4563 21.831 21.4836 21.9103C21.6778 21.6234 21.6965 21.3208 21.7641 21.0426C22.0813 19.7383 22.3816 18.4291 22.6871 17.1219C22.8936 16.2379 23.0953 15.3528 23.3052 14.4694C23.437 13.9155 23.5973 13.7878 24.1757 13.7995C24.5326 13.8065 24.8918 13.7469 25.2463 13.8496C25.4568 13.9108 25.5804 14.0514 25.6271 14.2479C25.9443 15.5919 26.2504 16.9388 26.5659 18.2828C26.8306 19.4111 27.1035 20.5382 27.3705 21.6659C27.3927 21.7592 27.3967 21.8577 27.5093 21.9499C27.6761 21.5674 27.7431 21.1703 27.8434 20.7878C28.3979 18.6647 28.9373 16.5377 29.4836 14.4123C29.6014 13.954 29.8143 13.7972 30.2976 13.7954C30.5892 13.7942 30.8801 13.7919 31.1717 13.796C31.4953 13.8 31.6422 13.9749 31.5577 14.2852C31.4364 14.7319 31.2959 15.1726 31.1583 15.6146C30.3385 18.2484 29.5186 20.8822 28.6959 23.5155C28.5011 24.1388 28.2871 24.1971 27.8271 24.1726C27.5075 24.1557 27.1863 24.1714 26.8656 24.1686C26.5361 24.1656 26.3583 24.0251 26.2848 23.7126C25.8486 21.8601 25.416 20.0071 24.9758 18.1557C24.8318 17.5475 24.6667 16.9423 24.511 16.3353Z" fill="#16181D"/>
<path d="M16.3052 18.6219C16.3052 19.2907 16.304 19.8055 16.3058 20.3204C16.3093 21.2755 16.3676 22.2184 16.8871 23.065C16.9845 23.2231 16.9699 23.3734 16.8236 23.5093C16.5303 23.7823 16.1903 23.9898 15.8469 24.1863C15.6079 24.3234 15.4201 24.1501 15.2609 23.9915C15.0114 23.7426 14.8364 23.4376 14.6802 23.1268C14.5798 22.928 14.4953 22.914 14.3408 23.0708C13.6644 23.7607 12.8661 24.2359 11.8964 24.3624C10.7903 24.5064 9.71982 24.4352 8.82942 23.6516C8.44342 23.3117 8.18277 22.8685 8.04866 22.3782C7.83758 21.6067 7.844 20.8306 8.15012 20.0738C8.49122 19.2295 9.1303 18.6871 9.94837 18.3559C10.851 17.9904 11.7985 17.998 12.7519 18.0959C13.2236 18.1443 13.6906 18.2108 14.1496 18.3315C14.2843 18.367 14.3775 18.3251 14.4055 18.1775C14.4142 18.1304 14.4364 18.0836 14.4364 18.0365C14.4381 17.504 14.4353 16.9647 14.276 16.4568C13.9909 15.5467 13.5758 15.3449 12.7186 15.1979C11.6014 15.0061 10.5489 15.2791 9.51628 15.6726C9.34431 15.7379 9.16936 15.7974 8.99327 15.8504C8.77286 15.9169 8.62709 15.8277 8.61484 15.5973C8.59969 15.307 8.60027 15.0143 8.61542 14.7239C8.62942 14.4615 8.84516 14.3449 9.04574 14.2556C9.98161 13.8376 10.9495 13.556 11.9886 13.5601C12.7548 13.563 13.5146 13.556 14.2551 13.8166C15.4324 14.2306 16.0417 15.0907 16.2434 16.2778C16.384 17.1058 16.2655 17.9437 16.3052 18.6219ZM12.5274 19.4475C12.0959 19.4545 11.767 19.4359 11.4405 19.507C10.8773 19.6301 10.3951 19.8592 10.1391 20.4196C9.93785 20.8604 9.94136 21.3116 10.0341 21.7764C10.1233 22.2236 10.3968 22.5199 10.7834 22.718C11.2563 22.9606 11.7583 22.9075 12.2598 22.8295C13.2405 22.6772 14.1881 22.0003 14.3565 21.0043C14.4149 20.6615 14.4405 20.3152 14.4469 19.9659C14.451 19.7484 14.3618 19.6795 14.1775 19.6417C13.5991 19.5216 13.0189 19.4248 12.5274 19.4475Z" fill="#16181D"/>
<path d="M35.8806 24.4639C34.8677 24.4861 33.9022 24.2709 32.9704 23.8854C32.5359 23.7059 32.3937 23.4919 32.3937 23.0225C32.3937 22.8575 32.3908 22.6919 32.3943 22.5268C32.4007 22.2464 32.5348 22.1339 32.8042 22.2027C32.9721 22.2452 33.1348 22.3134 33.2952 22.3823C34.1727 22.7596 35.0957 22.9187 36.0421 22.8791C36.6182 22.8552 37.1873 22.7666 37.6782 22.3834C38.2771 21.9164 38.252 20.8096 37.6205 20.4213C37.2083 20.1676 36.7633 20.0126 36.3109 19.8726C35.6911 19.6814 35.0665 19.5076 34.4596 19.2756C33.1517 18.7758 32.3891 17.6208 32.5197 16.2289C32.5914 15.465 32.9762 14.8418 33.5849 14.3654C34.5062 13.6458 35.5774 13.4476 36.7068 13.5112C37.5307 13.5572 38.336 13.7263 39.084 14.0954C39.3447 14.2237 39.4882 14.4517 39.5039 14.7461C39.5121 14.9012 39.4969 15.0575 39.5074 15.212C39.5337 15.5957 39.3639 15.8044 38.887 15.6009C38.4281 15.405 37.9622 15.2586 37.4753 15.1712C36.7127 15.0341 35.9576 15.0493 35.2182 15.3123C34.7039 15.4954 34.4718 15.9088 34.4503 16.4056C34.4316 16.8341 34.6211 17.2033 35.0217 17.4464C35.7721 17.9018 36.6304 18.0552 37.441 18.3409C37.9983 18.5374 38.5552 18.7228 39.048 19.0668C39.764 19.5671 40.2007 20.724 40.0771 21.5828C39.8257 23.3234 38.343 24.2091 36.8649 24.4108C36.5354 24.4564 36.2094 24.4552 35.8806 24.4639Z" fill="#16181D"/>
<path d="M37.7418 27.9863C37.0147 28.0015 36.2894 28.0616 35.5669 28.153C35.4608 28.1665 35.3552 28.1805 35.2485 28.1875C35.1377 28.195 35.0282 28.1799 34.9744 28.0662C34.9173 27.9455 34.964 27.8376 35.0468 27.7461C35.1989 27.577 35.3979 27.4709 35.5949 27.3677C37.0497 26.6067 38.5995 26.44 40.2065 26.644C40.5447 26.6872 40.8759 26.7566 41.1891 26.8971C41.3722 26.9794 41.4765 27.1105 41.5074 27.314C41.5972 27.9117 41.5086 28.496 41.3739 29.0738C41.0549 30.4382 40.4987 31.6831 39.497 32.6942C39.382 32.8102 39.2491 32.9117 39.1144 33.005C39.0165 33.0732 38.8993 33.1082 38.7896 33.0213C38.669 32.9257 38.6876 32.8038 38.7354 32.6773C38.9715 32.051 39.2188 31.4289 39.4386 30.7968C39.6456 30.2014 39.8305 29.5962 39.8667 28.9606C39.8999 28.3752 39.743 28.1776 39.1628 28.0574C39.0112 28.0259 38.8567 27.9934 38.7028 27.9886C38.3826 27.9788 38.062 27.9863 37.7418 27.9863Z" fill="#FE9503"/>
</svg>
