<svg width="49" height="48" viewBox="0 0 49 48" fill="none" xmlns="http://www.w3.org/2000/svg">
<path d="M16.8689 3.27272H29.8879L16.3729 43.3162C16.234 43.7277 15.9696 44.0852 15.6168 44.3385C15.264 44.5918 14.8407 44.7281 14.4064 44.7282H4.27441C3.94536 44.7282 3.62103 44.6499 3.32825 44.4998C3.03548 44.3496 2.78267 44.1318 2.59074 43.8646C2.39882 43.5973 2.27328 43.2881 2.22453 42.9627C2.17578 42.6374 2.20522 42.305 2.3104 41.9932L14.9019 4.68472C15.0408 4.27307 15.3052 3.91535 15.6581 3.66196C16.011 3.40856 16.4344 3.27274 16.8689 3.27272Z" fill="#4B5563"/>
<path d="M35.7871 30.1316H15.1421C14.9502 30.1313 14.7626 30.1889 14.6039 30.2968C14.4452 30.4047 14.3226 30.558 14.2522 30.7365C14.1817 30.9151 14.1668 31.1107 14.2091 31.2979C14.2514 31.4851 14.3492 31.6552 14.4896 31.7861L27.7556 44.1681C28.1418 44.5284 28.6504 44.7287 29.1786 44.7286H40.8686L35.7871 30.1316Z" fill="#787F8A"/>
<path d="M33.4972 4.68222C33.3585 4.27124 33.0944 3.91412 32.7421 3.66116C32.3898 3.4082 31.9669 3.27217 31.5332 3.27222H17.0237C17.4574 3.27224 17.8802 3.40831 18.2325 3.66125C18.5849 3.9142 18.849 4.27128 18.9877 4.68222L31.5797 41.9922C31.6849 42.304 31.7144 42.6364 31.6657 42.962C31.6171 43.2875 31.4915 43.5967 31.2996 43.864C31.1076 44.1315 30.8548 44.3493 30.562 44.4996C30.2692 44.6498 29.9448 44.7282 29.6157 44.7282H44.1257C44.4548 44.7281 44.779 44.6497 45.0718 44.4994C45.3646 44.349 45.6174 44.1313 45.8092 43.8639C46.0011 43.5965 46.1265 43.2873 46.1753 42.9618C46.2239 42.6364 46.1944 42.304 46.0892 41.9922L33.4972 4.68222Z" fill="#0C1930"/>
</svg>
