<svg width="1284" height="1284" viewBox="0 0 1284 1284" fill="none" xmlns="http://www.w3.org/2000/svg">
<path opacity="0.5" d="M373.36 349.542L373.36 349.542C291.917 424.334 245.18 530.986 245.211 642.066C245.241 753.147 291.963 859.716 373.406 934.458C446.681 1001.73 542.069 1038.79 642 1038.79C741.931 1038.79 837.319 1001.73 910.609 934.475L909.933 933.738L910.609 934.475C992.068 859.666 1038.79 753.097 1038.79 642C1038.79 530.903 992.083 424.301 910.625 349.525C837.334 282.249 741.946 245.21 642 245.21C542.054 245.21 446.65 282.265 373.36 349.542Z" stroke="#EAEAEA" stroke-width="2" stroke-miterlimit="10"/>
<path opacity="0.5" d="M441.776 424.024L441.776 424.024C381.074 479.769 346.24 559.259 346.263 642.05C346.286 724.84 381.108 804.269 441.811 859.976C496.424 910.119 567.52 937.737 642 937.737C716.48 937.737 787.576 910.119 842.201 859.989L841.525 859.252L842.201 859.988C902.915 804.232 937.737 724.803 937.737 642C937.737 559.197 902.926 479.744 842.212 424.012C787.587 373.868 716.491 346.263 642 346.263C567.509 346.263 496.401 373.881 441.776 424.024Z" stroke="#EAEAEA" stroke-width="2" stroke-miterlimit="10"/>
<path opacity="0.5" d="M309.831 280.38L309.83 280.38C209.128 372.859 151.338 504.732 151.376 642.082C151.414 779.432 209.185 911.203 309.888 1003.62C400.491 1086.81 518.437 1132.62 642 1132.62C765.563 1132.62 883.509 1086.81 974.131 1003.64L973.493 1002.95L974.132 1003.64C1074.85 911.142 1132.62 779.37 1132.62 642C1132.62 504.63 1074.87 372.818 974.15 280.36C883.528 197.173 765.582 151.376 642 151.376C518.418 151.376 400.453 197.194 309.831 280.38Z" stroke="#EAEAEA" stroke-width="2" stroke-miterlimit="10"/>
<path opacity="0.5" d="M208.021 169.544L208.021 169.544C76.4528 290.366 0.950237 462.66 1.00002 642.107C1.04981 821.555 76.5275 993.715 208.095 1114.46C326.468 1223.14 480.564 1283 642 1283C803.436 1283 957.532 1223.14 1075.93 1114.48L1075.25 1113.75L1075.93 1114.48C1207.52 993.634 1283 821.474 1283 642C1283 462.526 1207.55 290.313 1075.95 169.517C957.557 60.8339 803.461 1 642 1C480.539 1 326.418 60.8608 208.021 169.544Z" stroke="#EAEAEA" stroke-width="2" stroke-miterlimit="10"/>
</svg>
