<svg width="49" height="48" viewBox="0 0 49 48" fill="none" xmlns="http://www.w3.org/2000/svg">
<g clip-path="url(#clip0_210_59559)">
<path d="M0.480316 5.75731C0.480316 5.89541 1.5039 7.96695 1.62575 8.07256C1.65012 8.09692 1.75573 8.2594 1.86134 8.43813C1.96695 8.61684 2.14567 8.85243 2.24316 8.96616C2.34876 9.07989 2.43 9.19363 2.43 9.218C2.43 9.24237 2.50311 9.3561 2.6006 9.46171C2.68996 9.56731 2.95804 9.87605 3.18551 10.1441C4.23345 11.3627 5.74447 12.7761 7.34483 14.0273C7.39357 14.0597 7.51543 14.1572 7.62103 14.2466C7.72664 14.3359 7.84037 14.409 7.86474 14.409C7.88911 14.409 8.01098 14.4902 8.11658 14.5878C8.40903 14.8477 8.70148 15.0508 10.2368 16.0744C11.6585 17.0168 11.6829 17.0411 12.2597 17.3823C12.4628 17.5041 12.674 17.6585 12.7309 17.7153C12.7877 17.7722 12.877 17.8209 12.9177 17.8209C12.9746 17.8209 13.795 18.284 14.2094 18.5521C14.2743 18.6009 14.4206 18.6821 14.5343 18.7309C14.8267 18.877 16.4515 19.86 16.9308 20.185C18.3118 21.1111 20.0584 22.6952 20.5864 23.4832C20.8057 23.8162 20.952 23.9218 20.952 23.7432C20.952 23.6376 20.6189 23.0282 20.4889 22.874C20.4321 22.817 20.3833 22.7277 20.3833 22.6871C20.3833 22.5977 19.8959 21.8016 19.7497 21.6472C19.6928 21.5823 19.5791 21.436 19.506 21.3223C19.2867 20.9892 19.0186 20.6887 18.1899 19.8519C17.1908 18.8608 17.077 18.7714 15.6716 17.7235C15.0217 17.2442 14.4612 16.8217 14.4124 16.7812C14.3718 16.7487 14.185 16.6268 14.0063 16.5212C13.8275 16.4156 13.6651 16.3019 13.6407 16.2775C13.6163 16.2531 13.4538 16.1394 13.2751 16.0338C13.0964 15.9282 12.5846 15.6032 12.1378 15.3107C11.2361 14.7178 11.0817 14.6202 10.8217 14.4822C10.7161 14.4253 10.6349 14.3522 10.6349 14.3115C10.6349 14.279 10.5943 14.2466 10.5537 14.2466C10.5049 14.2466 10.31 14.1329 10.1231 13.9947C9.8063 13.7673 8.83146 13.0768 8.49839 12.8493C8.40903 12.7924 8.27093 12.6787 8.18157 12.5975C8.08408 12.5244 7.9866 12.4593 7.96223 12.4593C7.93786 12.4593 7.82413 12.3781 7.7104 12.2725C7.59667 12.1751 7.27984 11.9151 7.00363 11.7039C6.72743 11.4927 6.45122 11.2732 6.39436 11.2164C6.33749 11.1595 6.08566 10.9564 5.84194 10.7615C4.794 9.941 1.21957 6.51281 0.86213 5.98477C0.707779 5.75731 0.480316 5.6192 0.480316 5.75731Z" fill="#DA1B1B"/>
<path d="M8.10011 7.22773C8.03512 7.29272 8.12448 7.58517 8.20572 7.58517C8.24634 7.58517 8.27883 7.62579 8.27883 7.68265C8.27883 7.8045 8.86374 8.97432 8.99371 9.11243C9.04245 9.16929 9.0912 9.25053 9.0912 9.29114C9.0912 9.39675 9.78983 10.4041 10.131 10.7859C10.9434 11.6958 12.4219 13.0687 12.9906 13.4423C13.1043 13.5155 13.3074 13.6779 13.4373 13.7916C13.5755 13.9135 13.8273 14.1085 14.006 14.2304C14.1848 14.3522 14.4041 14.5147 14.4853 14.5877C14.5747 14.6691 14.794 14.8315 14.9728 14.9533C15.1596 15.0833 15.3789 15.2458 15.4602 15.3189C15.5495 15.4001 15.7689 15.5626 15.9475 15.6845C16.1345 15.8064 16.2969 15.9282 16.3213 15.9526C16.3457 15.9769 16.6219 16.1962 16.9306 16.44C17.2474 16.6837 17.5399 16.9193 17.5886 16.9681C17.6373 17.0086 17.9623 17.3011 18.3116 17.6179C19.4977 18.6821 20.4075 19.6732 20.9599 20.5018C21.4961 21.3142 21.7073 21.6717 22.1866 22.5978C22.4384 23.1014 22.8121 23.7675 22.9989 24.0844C23.1939 24.4012 23.4376 24.8073 23.5432 24.9942C23.6488 25.1811 23.7869 25.3841 23.852 25.441C23.9088 25.4979 23.9576 25.5873 23.9576 25.6278C23.9576 25.6685 23.9981 25.7497 24.0388 25.8066C24.0876 25.8634 24.4693 26.4321 24.8998 27.082C26.2728 29.1617 28.1575 30.8189 30.0097 31.5582C30.887 31.9075 32.723 32.0455 35.1276 31.9399C36.8011 31.875 38.7183 31.9237 39.0513 32.0455C39.1569 32.0862 39.3925 32.1187 39.5794 32.1187C39.7662 32.1268 40.0668 32.1755 40.2455 32.2406C40.4242 32.3055 40.6436 32.3624 40.733 32.3624C40.8223 32.3624 41.001 32.4193 41.131 32.4843C41.2529 32.5492 41.4154 32.6062 41.4803 32.6062C41.6103 32.6062 42.0571 32.8011 43.0888 33.3047C44.5754 34.044 45.7778 34.9213 47.0451 36.1968C47.8899 37.0498 47.9224 37.0742 47.9712 36.8629C48.0361 36.6111 47.9549 35.75 47.8493 35.555C47.8087 35.4738 47.6868 35.222 47.5812 35.0026C47.3781 34.5477 46.9963 34.0034 46.4276 33.3454C46.2083 33.0772 46.0539 32.8174 46.0539 32.7036C46.0539 32.3706 45.7371 31.8506 45.3634 31.5745C44.8922 31.2251 43.4463 30.494 43.2269 30.494C43.1863 30.494 43.0401 30.4371 42.9183 30.3721C42.7883 30.3072 42.6176 30.2502 42.5364 30.2502C42.4633 30.2502 42.3333 30.2177 42.252 30.1772C42.179 30.1365 41.8378 30.0228 41.5047 29.9253C40.3918 29.5923 39.6769 29.3404 39.425 29.186C39.1569 29.0236 38.9052 28.6011 38.9052 28.3168C38.9052 28.1056 39.2138 27.147 39.3113 27.0495C39.3601 27.0007 39.3925 26.9114 39.3925 26.8465C39.3925 26.7733 39.4413 26.619 39.5062 26.4971C39.5713 26.3834 39.6606 26.026 39.7175 25.7092C39.9856 24.1331 39.1326 23.1258 36.3867 21.7529C36.0212 21.5742 35.355 21.2736 35.0464 21.1436C34.957 21.1111 34.7133 21.0055 34.5021 20.9161C34.2909 20.8186 34.0634 20.7456 33.9984 20.7456C33.9334 20.7456 33.8522 20.7049 33.8278 20.6643C33.8034 20.6156 33.7222 20.583 33.6491 20.583C33.5841 20.583 33.4135 20.5344 33.2754 20.4693C33.1292 20.4044 32.4306 20.1606 31.7156 19.9332C31.0007 19.6976 30.359 19.4783 30.2859 19.4457C30.2128 19.4051 30.0097 19.3483 29.839 19.3157C29.6604 19.2914 29.4898 19.2345 29.441 19.202C29.4004 19.1696 29.2298 19.1127 29.0755 19.0883C28.9211 19.0559 28.718 18.9989 28.6287 18.9583C28.5393 18.9259 28.3037 18.8527 28.1007 18.7959C27.8975 18.7471 27.5888 18.6659 27.4101 18.6252C27.2314 18.5765 27.012 18.5034 26.9227 18.4709C26.8334 18.4303 26.6302 18.3734 26.4759 18.341C26.3215 18.3166 26.1428 18.2596 26.0697 18.2272C26.0047 18.1947 25.6717 18.081 25.3386 17.9835C25.0055 17.886 24.6724 17.7804 24.6074 17.7479C24.5344 17.7073 24.3556 17.6504 24.2013 17.6179C24.0469 17.5854 23.8844 17.5367 23.8357 17.5042C23.7951 17.4717 23.4783 17.3579 23.1452 17.2523C22.8121 17.1549 22.5034 17.0411 22.4547 17.0086C22.414 16.9762 22.1379 16.8706 21.8454 16.7649C21.553 16.6593 21.2849 16.5456 21.2442 16.505C21.1955 16.4725 21.1142 16.44 21.0493 16.44C20.8867 16.44 20.1232 16.0906 18.1897 15.1484C16.8331 14.4821 15.5821 13.7998 15.3058 13.5804C15.2652 13.5479 14.9321 13.3286 14.5747 13.093C14.2172 12.8574 13.8923 12.6381 13.8436 12.6056C13.8029 12.5731 13.4211 12.2887 12.9987 11.9719C11.5283 10.8753 9.39178 8.81997 8.49004 7.62579C8.31945 7.39833 8.17322 7.21148 8.1651 7.19523C8.14885 7.18711 8.12448 7.20336 8.10011 7.22773ZM44.4292 31.8425C45.2578 32.1187 45.5259 32.3299 45.7209 32.8255C45.9159 33.3047 45.5909 33.4184 45.1929 33.0042C45.0629 32.866 44.8273 32.6792 44.6729 32.5818C44.5186 32.4843 44.3398 32.3624 44.283 32.3055C44.2261 32.2487 44.1286 32.1999 44.0637 32.1999C43.9581 32.1999 43.8605 32.0294 43.8605 31.8262C43.8605 31.6801 43.9743 31.6801 44.4292 31.8425ZM2.2673 12.3457C2.2673 12.435 2.95782 13.7998 3.07967 13.946C3.12841 14.0028 3.29901 14.2223 3.46148 14.4497C4.05451 15.2458 4.98062 16.1962 6.21541 17.2523C6.52411 17.5204 7.36898 18.154 7.63706 18.3247C7.75079 18.3978 7.89702 18.5115 7.962 18.5684C8.027 18.6334 8.22197 18.7715 8.40068 18.8771C8.57941 18.9827 8.74188 19.0964 8.76625 19.1208C8.81499 19.1858 11.2115 20.6074 11.9751 21.0298C12.5763 21.371 13.2261 21.6961 15.5089 22.809C16.8494 23.467 17.1011 23.597 18.0841 24.19C18.8233 24.6368 20.0094 25.5629 20.6025 26.1559C20.9355 26.489 21.2199 26.757 21.2361 26.757C21.2605 26.757 21.2279 26.6677 21.1793 26.554C21.1305 26.4402 21.0574 26.3509 21.0167 26.3509C20.9843 26.3509 20.9518 26.3021 20.9518 26.2453C20.9518 26.1802 20.8786 26.0422 20.7893 25.9366C20.6999 25.831 20.6025 25.701 20.5699 25.6604C19.9769 24.8805 19.4896 24.4093 17.9948 23.142C17.7916 22.9633 16.4513 22.0534 15.8257 21.6635C15.3302 21.3467 14.3309 20.7861 13.3155 20.2419C13.0718 20.1037 12.8362 19.9657 12.7875 19.9332C12.7144 19.8763 12.3651 19.6895 11.2034 19.0558C10.4722 18.6659 8.62003 17.5204 8.31945 17.2767C8.27883 17.2361 8.09199 17.1142 7.91327 17.0086C7.73454 16.903 7.55583 16.7811 7.50708 16.7487C7.46646 16.7162 7.02779 16.3913 6.53224 16.0257C6.04482 15.6601 5.62239 15.3352 5.59801 15.3108C5.57364 15.2783 5.37867 15.1158 5.15121 14.9452C4.69629 14.604 4.11138 14.0679 3.0228 12.9955C2.6085 12.5894 2.2673 12.2969 2.2673 12.3457ZM11.4958 26.8951C11.4146 26.9764 12.7794 28.2437 13.6811 28.918C14.1279 29.2511 14.5341 29.5516 14.5747 29.5841C14.7859 29.7465 15.517 30.169 15.5821 30.169C15.6226 30.169 15.712 30.2177 15.7689 30.2665C15.8257 30.3233 16.0045 30.429 16.1588 30.5102C17.2392 31.022 17.7023 31.2251 17.816 31.2251C17.8811 31.2251 17.9541 31.2576 17.9785 31.2901C18.0435 31.3957 20.6025 32.1999 20.8867 32.1999C20.9681 32.1999 21.098 32.2325 21.1793 32.2811C21.2523 32.3218 21.4798 32.3949 21.6829 32.4355C22.3896 32.5899 22.7796 32.6874 22.9421 32.7605C23.0315 32.8011 23.3808 32.9148 23.7139 33.0204C24.0469 33.126 24.3556 33.2316 24.4044 33.2723C24.4449 33.3047 24.5262 33.3372 24.5912 33.3372C24.6562 33.3372 24.8186 33.386 24.9568 33.451C26.289 34.0277 26.6465 34.1659 26.6952 34.1252C26.7196 34.0928 26.6383 33.9871 26.5083 33.8896C26.3053 33.7272 25.9478 33.4104 25.1761 32.6874C25.0542 32.5736 24.8349 32.3787 24.6886 32.2487C24.2825 31.8994 22.5765 30.6321 22.211 30.4128C22.0322 30.3072 21.8698 30.1934 21.8454 30.169C21.821 30.1365 21.7479 30.0877 21.6829 30.0553C21.6179 30.0228 21.3417 29.8765 21.0737 29.7222C20.57 29.4297 19.5382 28.918 18.9615 28.6743C18.7828 28.6011 18.5797 28.5036 18.5147 28.4712C18.4416 28.4306 18.2709 28.3736 18.1247 28.3493C17.9867 28.3168 17.8485 28.2518 17.8242 28.2112C17.7916 28.1706 17.6942 28.1381 17.5967 28.1381C17.418 28.1462 17.418 28.1462 17.5804 28.2356C17.6698 28.2843 17.7592 28.3493 17.7835 28.3818C17.8079 28.4062 17.9867 28.528 18.1897 28.6499C18.6203 28.9017 19.4083 29.6004 19.4083 29.7304C19.4083 29.7791 19.3514 29.8684 19.2864 29.9253C19.1889 30.0065 18.9533 29.9984 18.1085 29.8928C17.5236 29.8197 16.9631 29.7222 16.8655 29.6816C16.7681 29.6491 16.4838 29.5516 16.2401 29.4785C14.9728 29.0967 12.4219 27.6831 11.6827 26.9602C11.6095 26.8951 11.5283 26.8627 11.4958 26.8951Z" fill="#DA1B1B"/>
<path d="M25.3791 31.0868C26.8982 32.4841 30.7894 36.4565 31.0332 36.8465C31.1306 36.9927 31.0169 37.1552 30.8301 37.1552C30.7407 37.147 30.5132 37.0821 30.3345 36.9927C30.1558 36.9033 29.9852 36.8384 29.9527 36.8302C29.8471 36.8302 29.0428 36.3184 28.8316 36.1235C28.5879 35.896 28.4579 35.8797 28.6042 36.0909C28.8398 36.4321 30.0177 37.5938 30.7569 38.2275C31.09 38.5118 31.9755 39.1211 32.2761 39.2674C32.7635 39.5111 32.8122 39.5516 32.8122 39.706C32.8122 39.8441 32.7717 39.8523 32.3654 39.8035C32.1217 39.7791 31.9186 39.7791 31.9186 39.8197C31.9186 39.8766 32.3979 40.1122 32.9747 40.3315C33.3971 40.5021 34.5751 40.4777 34.9081 40.2991C35.0544 40.2178 35.2575 40.1609 35.3468 40.1772C35.5256 40.2016 35.5418 40.2259 35.7936 40.7703C36.1024 41.4364 36.8173 42.3543 37.0203 42.3543C37.0609 42.3543 37.1422 42.403 37.1909 42.4681C37.2884 42.5818 38.4014 42.8823 38.4663 42.8174C38.4907 42.793 38.3363 42.6468 38.1333 42.4843C37.5646 42.0537 37.2884 41.6476 37.2802 41.2495C37.2802 40.8189 37.459 40.4696 37.8327 40.1772C38.377 39.7628 38.71 39.6491 39.5061 39.641C40.156 39.641 40.286 39.6572 40.5704 39.836C40.7491 39.9416 40.9441 40.0879 41.0009 40.1609C41.1553 40.3478 41.4233 40.9652 41.4233 41.1439C41.4233 41.4201 41.5777 41.3064 41.6346 40.9896C41.7483 40.3721 41.7158 39.706 41.5614 39.5272C41.3421 39.2836 40.7491 39.1292 39.8392 39.0642C38.2876 38.9667 37.4997 38.7068 36.801 38.0731C36.078 37.4233 36.1105 37.3501 37.1422 37.3014C37.8733 37.2608 38.4988 37.1308 39.0268 36.9114C39.1162 36.8709 39.3762 36.7572 39.5955 36.6677C39.823 36.5703 40.2941 36.3509 40.6516 36.1804C42.0164 35.5304 42.8531 35.3355 44.2504 35.3355C45.2659 35.3355 45.534 35.2786 45.1603 35.1648C45.0709 35.1405 44.9977 35.0755 44.9977 35.0349C44.9977 34.9943 44.9653 34.9618 44.9247 34.9618C44.8596 34.9618 44.1611 34.5394 43.893 34.3363C43.7711 34.2387 43.3162 33.9951 42.6825 33.6863C42.3738 33.532 42.0489 33.3695 41.9758 33.3289C41.8945 33.2883 41.797 33.2558 41.7564 33.2558C41.7158 33.2558 41.5777 33.2151 41.4477 33.1583C41.1146 33.0202 40.5704 32.8658 39.9204 32.7115C39.0919 32.5165 35.9805 32.5246 34.5995 32.7115C32.5442 32.9958 32.1867 33.0283 31.2281 32.9877C30.2452 32.9471 29.8877 32.8821 28.9128 32.5897C28.3198 32.4109 28.2142 32.3703 27.6862 32.1266C27.4831 32.0373 27.2881 31.956 27.2638 31.956C27.2313 31.956 26.9713 31.8098 26.6789 31.631C26.3864 31.4524 26.1265 31.3061 26.1102 31.3061C26.0696 31.3061 25.3872 30.8431 24.9648 30.5181C24.4123 30.1038 24.6155 30.38 25.3791 31.0868Z" fill="#DA1B1B"/>
</g>
<defs>
<clipPath id="clip0_210_59559">
<rect width="48" height="48" fill="white" transform="translate(0.399963)"/>
</clipPath>
</defs>
</svg>
