<svg width="52" height="28" viewBox="0 0 52 28" fill="none" xmlns="http://www.w3.org/2000/svg">
<g clip-path="url(#clip0_801_113331)">
<mask id="mask0_801_113331" style="mask-type:luminance" maskUnits="userSpaceOnUse" x="0" y="-12" width="52" height="52">
<path d="M52 -12H0V40H52V-12Z" fill="white"/>
</mask>
<g mask="url(#mask0_801_113331)">
<path d="M44.8459 24.5097C44.6704 24.5097 44.5371 24.5536 44.3625 24.5536H24.0906C25.454 21.9154 27.9175 19.8492 30.7311 18.8807C28.6999 17.4734 27.6965 15.0108 28.093 12.5919C28.4886 10.2601 30.2038 8.28241 32.4463 7.53491C35.481 6.61111 38.779 7.8437 40.274 10.6574C41.7251 13.4719 40.846 17.0339 38.2427 18.8799C41.0572 19.8037 43.4752 21.8699 44.8402 24.5089C44.6647 24.5089 43.654 22.2664 44.8402 24.5089L44.8459 24.5097ZM22.5509 24.5097C22.5509 23.6744 23.2545 22.8384 23.6941 22.2233C22.6378 21.1671 21.3191 20.3326 19.8672 19.8045C23.2976 17.3857 22.594 11.9769 18.681 10.4819C16.2621 9.6028 13.5354 10.4819 12.181 12.6366C10.686 15.0116 11.3457 18.1779 13.6321 19.8045C11.3002 20.5959 9.2787 22.3111 8.1347 24.5089H13.5866L22.5509 24.5097Z" fill="#1E8194"/>
<path d="M47.8368 16.1978C50.2556 18.6166 49.4196 22.7953 46.2979 24.1132C45.9461 22.8822 44.8468 21.6513 43.9661 20.7714C43.0423 19.8045 41.9868 19.0123 40.8436 18.3964C41.5473 17.4726 42.0299 16.3652 42.2948 15.274C44.1416 14.3502 46.3857 14.7459 47.8368 16.1978C48.0562 16.4172 47.2648 15.6258 47.8368 16.1978ZM4.47695 23.1024C5.09282 23.6744 5.84032 24.0693 6.67557 24.3334C6.8072 23.3218 7.77489 22.2225 8.47932 21.5189C9.22682 20.6836 10.1506 19.9361 11.1175 19.3641C10.0613 17.8252 9.66639 15.8899 10.0613 14.0869C7.68632 13.2078 4.96039 14.1308 3.59701 16.2417C2.14589 18.3964 2.54076 21.3425 4.47614 23.1016C4.82795 23.4534 4.43226 23.0577 4.47614 23.1016L4.47695 23.1024ZM23.6503 15.4503C23.6503 16.8575 23.2116 18.177 22.4194 19.3202C23.2546 19.8037 23.9583 20.3765 24.6619 21.0346C25.6288 19.9784 26.7728 19.0554 28.0484 18.3517C24.8821 14.1739 26.685 8.0614 31.5665 6.1707C29.7628 3.8844 26.685 2.9167 23.9144 3.7089C21.4525 4.4125 19.4724 6.4356 18.9013 8.9414C21.628 9.8652 23.6503 12.4156 23.6503 15.4414V15.4503Z" fill="#1E8194"/>
<path d="M51.9698 18.9684C51.618 15.0985 48.2762 12.0638 44.3616 12.0638C44.0975 12.0638 43.7896 12.0638 43.5263 12.1077C42.735 7.4464 38.3808 4.1046 33.6756 4.4994C31.3437 1.5972 27.4746 0.1899 23.8248 0.9813C22.1534 1.3369 20.6026 2.1191 19.3233 3.2519C18.0439 4.3847 17.0797 5.8295 16.5245 7.4456C13.762 7.5333 11.3351 9.0283 9.92702 11.2278C5.17958 10.1813 0.430519 13.6474 0.0340192 18.485C-0.406356 23.1024 3.41239 27.2438 8.12489 27.2438H44.8011C45.0652 27.2438 45.3293 27.1999 45.5486 27.1121C49.5055 26.4524 52.3208 22.8465 51.969 18.9766L51.9698 18.9684ZM45.3293 25.96C48.4086 25.4766 45.1538 26.0039 45.3293 25.96C45.1976 26.0039 45.0205 26.0478 44.8905 26.0478H8.12489C3.99089 26.0478 0.736832 22.3541 1.22027 18.3079C1.74839 13.9545 6.36583 11.14 10.499 12.635C11.73 10.0407 14.5006 8.4133 17.4036 8.6781C18.1511 5.5118 20.7024 2.9614 23.8679 2.2139C27.386 1.3786 31.1235 2.8298 33.1466 5.7759C37.9404 4.9845 42.4254 8.722 42.4693 13.5596C46.0313 12.4603 49.9012 14.7028 50.6918 18.3534C51.3954 21.8715 48.9327 25.3896 45.3268 25.9616L45.3293 25.96Z" fill="#1E8194"/>
</g>
</g>
<defs>
<clipPath id="clip0_801_113331">
<rect width="52" height="28" fill="white"/>
</clipPath>
</defs>
</svg>
