<svg width="49" height="48" viewBox="0 0 49 48" fill="none" xmlns="http://www.w3.org/2000/svg">
<path d="M8.91838 25.1387L19.5256 35.7486L17.1881 38.0833L4.09216 24.9873L14.278 14.8014L24.464 4.61548L37.56 17.7114L35.2252 20.049L24.6154 9.44169L17.8586 16.1958L31.7659 30.1057L29.4311 32.4406L15.5211 18.5333L8.91838 25.1387Z" fill="#0C1930"/>
<path d="M39.0451 29.4515C39.3608 30.6908 39.3086 31.9638 38.8938 33.2422C38.4634 34.5596 37.6494 35.8222 36.4755 36.9962C35.3016 38.1701 34.0363 38.9839 32.7215 39.4145C31.4458 39.8319 30.1675 39.8815 28.9257 39.5606C28.3283 39.4066 27.7413 39.164 27.183 38.8406L25.837 38.0605L24.17 44.9321L21.0837 41.8459L22.0334 38.3215L22.9622 35.0005L13.9384 25.9846L16.2759 23.6471L27.457 34.8283C28.044 35.4152 28.7274 35.7934 29.4892 35.9526C30.2458 36.1091 31.0258 36.0362 31.8058 35.7414C32.5232 35.4674 33.2146 35.0135 33.8642 34.39C34.4955 33.7586 34.9546 33.0726 35.2312 32.3473C35.5286 31.5674 35.5989 30.7873 35.4424 30.0307C35.2832 29.269 34.8999 28.5803 34.3024 27.9829L23.1213 16.7991L25.4586 14.4617L36.9738 25.9767C38.0277 27.0333 38.7243 28.2019 39.0451 29.4515Z" fill="#0C1930"/>
</svg>
