<svg width="48" height="48" viewBox="0 0 48 48" fill="none" xmlns="http://www.w3.org/2000/svg">
<path d="M5.50635 23.7521C5.52323 23.5449 5.54053 23.3382 5.55658 23.1311C5.87448 18.9902 7.39972 15.353 10.1454 12.2411C12.505 9.56659 15.411 7.73212 18.8358 6.73026C20.9535 6.11052 23.1166 5.89022 25.3171 6.0504C29.0801 6.32465 32.4591 7.61476 35.4194 9.95077C38.7627 12.5891 40.9483 15.9904 41.9729 20.1275C42.4181 21.9254 42.5778 23.7541 42.4526 25.6014C42.1541 30.0049 40.5032 33.8328 37.5001 37.0674C35.6475 39.0629 33.4433 40.5576 30.9219 41.5846C30.6329 41.7024 30.3347 41.7979 30.0449 41.9144C29.5046 42.1314 28.9998 41.9066 28.6966 41.5578C28.4162 41.2351 28.2639 40.8631 28.2639 40.4304C28.2651 38.5716 28.2659 36.7133 28.2618 34.8545C28.2606 34.3471 28.252 33.8382 28.1205 33.344C28.0604 33.1184 27.9641 32.9026 27.8809 32.6737C28.1638 32.6131 28.459 32.5539 28.7523 32.4868C30.5443 32.0745 32.224 31.4099 33.6784 30.2557C35.3511 28.9281 36.3817 27.2135 36.6848 25.094C36.9767 23.0549 36.7399 21.0775 35.8538 19.1998C35.5137 18.4792 35.062 17.8314 34.5213 17.2459C34.4924 17.215 34.4657 17.1825 34.4587 17.1742C35.1028 15.6033 35.1463 14.0472 34.5172 12.4857C34.4176 12.2382 34.2533 12.0167 34.1211 11.782C34.0782 11.7058 34.0189 11.6881 33.9341 11.6901C32.4311 11.7222 31.0648 12.1802 29.8414 13.0424C29.4139 13.3439 29.0351 13.7144 28.639 14.0591C28.581 14.1098 28.5418 14.1258 28.4682 14.1003C27.4445 13.7437 26.3816 13.5918 25.3064 13.5148C24.3453 13.446 23.383 13.4497 22.4227 13.5382C21.4295 13.6301 20.4507 13.7931 19.5094 14.1369C19.437 14.1633 19.3953 14.1563 19.3398 14.0974C18.2143 12.9123 16.8571 12.1353 15.2507 11.8186C14.8579 11.7412 14.451 11.7338 14.0513 11.6901C13.9578 11.6799 13.9054 11.7182 13.8535 11.791C13.4439 12.3676 13.214 13.0148 13.1111 13.707C12.9707 14.6488 13.023 15.5799 13.331 16.4858C13.4154 16.7341 13.5431 16.9679 13.6584 17.2254C13.5274 17.374 13.3738 17.5408 13.2289 17.7145C12.1607 18.9972 11.5394 20.475 11.3063 22.1222C11.1251 23.402 11.1482 24.6744 11.471 25.932C11.9602 27.8377 13.0403 29.3382 14.6199 30.4896C15.8454 31.3828 17.2174 31.9634 18.6776 32.343C19.1396 32.4632 19.6098 32.5534 20.076 32.658C20.0982 32.663 20.12 32.6704 20.1299 32.6732C20.0427 32.9463 19.9199 33.2086 19.8796 33.4829C19.8046 33.9922 19.7725 34.5081 19.7346 35.0225C19.7268 35.1292 19.6984 35.181 19.5983 35.2147C18.8847 35.4557 18.1521 35.5055 17.4089 35.4326C16.7228 35.3651 16.0722 35.1773 15.4727 34.8273C14.9045 34.4954 14.4552 34.0461 14.1048 33.4898C13.5147 32.5539 12.7002 31.9254 11.6003 31.7019C11.2894 31.6385 10.9781 31.6351 10.6725 31.7323C10.3654 31.8299 10.3049 32.0165 10.5149 32.2631C10.6335 32.4028 10.7697 32.5357 10.9217 32.6362C11.6274 33.1036 12.1018 33.764 12.4975 34.4913C12.624 34.7239 12.7443 34.9619 12.8422 35.2074C13.2083 36.1228 13.8462 36.8059 14.6582 37.3346C15.6856 38.0034 16.8304 38.2587 18.0418 38.2088C18.603 38.1858 19.1614 38.1026 19.7301 38.0457C19.7301 38.0969 19.7301 38.1767 19.7301 38.2566C19.7301 38.9916 19.7346 39.7266 19.7285 40.4613C19.7243 40.9814 19.5044 41.4071 19.105 41.7317C18.7686 42.0051 18.3882 42.0705 17.971 41.9223C13.7292 40.4143 10.4312 37.741 8.10016 33.8909C6.87222 31.8629 6.08407 29.6657 5.73366 27.3189C5.63647 26.6687 5.59694 26.0098 5.53023 25.3551C5.52487 25.304 5.51458 25.2538 5.50635 25.2031C5.50635 24.7194 5.50635 24.2358 5.50635 23.7521Z" fill="#0C1930"/>
</svg>
