<svg width="48" height="48" viewBox="0 0 48 48" fill="none" xmlns="http://www.w3.org/2000/svg">
<path d="M23.9986 41.3925L30.8007 20.4692H17.2063L23.9986 41.3925Z" fill="#0C1930"/>
<path d="M7.679 20.4692L5.60758 26.826C5.42014 27.4032 5.62256 28.0404 6.11732 28.4002L23.9989 41.3925L7.679 20.4692Z" fill="#787F8A"/>
<path d="M7.67871 20.4691H17.2063L13.1059 7.86804C12.896 7.22335 11.9814 7.22335 11.764 7.86804L7.67871 20.4691Z" fill="#0C1930"/>
<path d="M40.3284 20.4692L42.3924 26.826C42.5799 27.4032 42.3775 28.0404 41.8827 28.4002L23.9985 41.3925L40.3284 20.4692Z" fill="#787F8A"/>
<path d="M40.3286 20.4691H30.801L34.8939 7.86804C35.1038 7.22335 36.0183 7.22335 36.2357 7.86804L40.3286 20.4691Z" fill="#0C1930"/>
<path d="M23.9985 41.3925L30.8007 20.4692H40.3284L23.9985 41.3925Z" fill="#4B5563"/>
<path d="M23.9986 41.3925L7.67871 20.4692H17.2063L23.9986 41.3925Z" fill="#4B5563"/>
</svg>
