<svg width="24" height="24" viewBox="0 0 24 24" fill="none" xmlns="http://www.w3.org/2000/svg">
<g clip-path="url(#clip0_683_90640)">
<path fill-rule="evenodd" clip-rule="evenodd" d="M18.2397 14.1662H12V9.91138H18.3693H23.103C23.2305 10.6002 23.2945 11.2994 23.2941 11.9999C23.2945 12.7268 23.2256 13.4521 23.0883 14.1659C22.6188 16.5993 21.3591 18.8097 19.5047 20.4539L15.5788 17.4604C16.8015 16.6819 17.7361 15.5249 18.24 14.1659L18.2397 14.1662Z" fill="#4285F4"/>
<path fill-rule="evenodd" clip-rule="evenodd" d="M16.2212 6.69568L19.4335 3.48335C17.45 1.75224 14.8515 0.705841 12 0.705841C9.89555 0.700936 7.83178 1.28542 6.04244 2.39311C4.25309 3.50079 2.80967 5.0874 1.87567 6.97323L5.64282 9.87102C6.06224 8.5135 6.90616 7.32638 8.05049 6.48421C9.19482 5.64203 10.5792 5.18925 12 5.19243C13.6055 5.19243 15.0745 5.75544 16.2215 6.69539L16.2212 6.69568Z" fill="#EA4335"/>
<path fill-rule="evenodd" clip-rule="evenodd" d="M5.70578 14.0131L1.8254 16.9235C1.10766 15.437 0.705872 13.7671 0.705872 11.9999C0.705872 10.1917 1.12658 8.48543 1.87566 6.97314L5.64281 9.87093C5.45053 10.4944 5.34719 11.1573 5.34719 11.8451C5.34719 12.605 5.47312 13.334 5.70578 14.0131Z" fill="#FBBC05"/>
<path fill-rule="evenodd" clip-rule="evenodd" d="M5.70604 14.0132L1.82538 16.9237C2.74862 18.8365 4.19366 20.4495 5.9939 21.5766C7.79414 22.7037 9.87628 23.2991 12.0002 23.2941C14.7657 23.3013 17.4371 22.2903 19.5049 20.4539L15.5788 17.4604C14.5468 18.1177 13.3194 18.4981 12 18.4981C10.614 18.5012 9.26178 18.0703 8.13303 17.266C7.00429 16.4617 6.15561 15.3242 5.70604 14.0132Z" fill="#34A853"/>
</g>
<defs>
<clipPath id="clip0_683_90640">
<rect width="24" height="24" fill="white"/>
</clipPath>
</defs>
</svg>
