<svg width="48" height="48" viewBox="0 0 48 48" fill="none" xmlns="http://www.w3.org/2000/svg">
<path d="M40.4633 21.8419C40.4039 21.2387 40.305 20.5465 40.1072 19.7753C39.8845 18.921 39.573 18.0923 39.1777 17.303C38.7046 16.3559 38.124 15.4666 37.4471 14.6526C37.1604 14.3067 36.8439 13.9705 36.5078 13.6441C37.012 11.6367 35.8946 9.89621 35.8946 9.89621C33.9662 9.77751 32.7401 10.4994 32.2852 10.8258C32.2061 10.7961 32.1368 10.7565 32.0577 10.7268C31.7314 10.5983 31.3951 10.4698 31.0391 10.3611C30.6865 10.2504 30.3303 10.1514 29.9711 10.0642C29.6053 9.97523 29.2395 9.90609 28.8636 9.84674C28.7944 9.83686 28.7351 9.82698 28.6658 9.81702C27.8253 7.12748 25.4124 6 25.4124 6C22.7128 7.71071 22.2084 10.1039 22.2084 10.1039C22.2084 10.1039 22.1984 10.1533 22.1788 10.2423C22.0303 10.282 21.8821 10.3314 21.7337 10.3709C21.5261 10.4302 21.3185 10.5093 21.1206 10.5884C20.9146 10.6665 20.7102 10.749 20.5075 10.8356C20.0968 11.0154 19.6942 11.2134 19.3011 11.4291C18.9154 11.6466 18.5397 11.8839 18.1737 12.1311L18.0749 12.0915C14.3368 10.6674 11.0241 12.3783 11.0241 12.3783C10.7176 16.3537 12.5173 18.8555 12.8733 19.3105C12.7842 19.5577 12.7051 19.8049 12.6261 20.0521C12.3492 20.952 12.1416 21.8716 12.013 22.8308C11.9932 22.9693 11.9734 23.1078 11.9635 23.2462C8.50247 24.9569 7.48389 28.4478 7.48389 28.4478C10.3615 31.7605 13.7238 31.9681 13.7238 31.9681L13.7337 31.9583C14.1589 32.7196 14.6533 33.4415 15.2071 34.1238C15.4405 34.4067 15.6846 34.6806 15.9389 34.9447C14.8906 37.9509 16.0872 40.4429 16.0872 40.4429C19.2911 40.5616 21.3976 39.0387 21.8425 38.6926C22.161 38.8031 22.4843 38.8988 22.8116 38.9793C23.7948 39.2351 24.8027 39.3844 25.8178 39.4244C26.065 39.4342 26.3222 39.4441 26.5695 39.4342H26.9254L27.0836 39.4244V39.4342C28.5966 41.5901 31.2469 41.8966 31.2469 41.8966C33.1356 39.9089 33.2442 37.9311 33.2442 37.5059V37.4763V37.4169V37.3278C33.6399 37.0511 34.0158 36.7543 34.3718 36.428C35.1233 35.7457 35.7859 34.9645 36.3395 34.1238L36.4879 33.8866C38.6238 34.0053 40.137 32.5614 40.137 32.5614C39.7809 30.3366 38.5151 29.2488 38.2482 29.041C38.2482 29.041 38.2382 29.0312 38.2184 29.0213C38.1988 29.0114 38.1988 29.0015 38.1988 29.0015C38.1888 28.9916 38.1691 28.9817 38.1493 28.9719C38.1591 28.8334 38.1691 28.7047 38.179 28.5665C38.1988 28.329 38.1988 28.0818 38.1988 27.8445V27.528V27.4686L38.1888 27.3204L38.179 27.1226C38.179 27.0534 38.1691 26.9941 38.1591 26.9347C38.1493 26.8754 38.1493 26.8062 38.1394 26.7468L38.1197 26.559L38.0899 26.3711C38.0503 26.1239 38.0108 25.8865 37.9515 25.6392C37.724 24.6801 37.3482 23.7703 36.8637 22.9495C36.3762 22.1413 35.7657 21.414 35.0541 20.7938C34.3618 20.1807 33.5805 19.6862 32.7697 19.3203C31.9491 18.9545 31.0985 18.717 30.248 18.6082C29.8229 18.5489 29.3977 18.5292 28.9724 18.5391H28.6559L28.4977 18.549C28.4383 18.549 28.379 18.5588 28.3296 18.5588C28.1141 18.5781 27.8995 18.6078 27.6869 18.6479C26.8364 18.806 26.0354 19.1127 25.3333 19.5378C24.6312 19.9631 24.0181 20.4872 23.5236 21.0805C23.04 21.661 22.6527 22.3154 22.3765 23.0187C22.1173 23.6829 21.9638 24.3836 21.9217 25.0953C21.9117 25.2635 21.9117 25.4416 21.9117 25.6097V25.7382L21.9217 25.8766C21.9315 25.9557 21.9315 26.0448 21.9414 26.1239C21.9711 26.47 22.0403 26.8062 22.1293 27.1226C22.3171 27.7654 22.6138 28.3488 22.9796 28.8432C23.3455 29.3377 23.7906 29.7432 24.2554 30.0695C24.7202 30.3859 25.2244 30.6134 25.719 30.7616C26.2134 30.9101 26.7078 30.9694 27.1726 30.9694H27.4297C27.4594 30.9694 27.489 30.9694 27.5186 30.9594C27.5681 30.9594 27.6175 30.9496 27.667 30.9496C27.6768 30.9496 27.6966 30.9496 27.7064 30.9398L27.7559 30.9298C27.7855 30.9298 27.8153 30.92 27.8449 30.92C27.9042 30.9101 27.9537 30.9001 28.0131 30.8903C28.0724 30.8803 28.1218 30.8705 28.1712 30.8507C28.28 30.831 28.379 30.7914 28.4778 30.7616C28.6757 30.6925 28.8735 30.6133 29.0415 30.5244C29.2195 30.4353 29.3777 30.3266 29.5359 30.2276C29.5755 30.1979 29.625 30.1684 29.6646 30.1288C29.8228 30.0003 29.8524 29.763 29.7239 29.6047C29.615 29.4663 29.4173 29.4267 29.259 29.5158L29.1402 29.5751C29.003 29.6445 28.8609 29.7041 28.7151 29.7532C28.5667 29.8025 28.4087 29.8421 28.2503 29.8718C28.1712 29.8816 28.0922 29.8914 28.0031 29.9014C27.9636 29.9014 27.924 29.9112 27.8746 29.9112H27.6372C27.5877 29.9112 27.5383 29.9112 27.489 29.9014H27.4297C27.4099 29.9014 27.3803 29.9014 27.3606 29.8914C27.3111 29.8816 27.2715 29.8816 27.2221 29.8718C26.8562 29.8223 26.4904 29.7136 26.1441 29.5553C25.7788 29.392 25.4417 29.1716 25.1455 28.9026C24.8389 28.6256 24.5718 28.2993 24.3642 27.9236C24.1564 27.5478 24.0081 27.1326 23.939 26.6974C23.9093 26.4798 23.8896 26.2524 23.8994 26.0348C23.8994 25.9755 23.9093 25.9161 23.9093 25.8568V25.7777C23.9093 25.748 23.9192 25.7183 23.9192 25.6887C23.929 25.5701 23.949 25.4514 23.9686 25.3327C24.1368 24.3834 24.6114 23.4538 25.3433 22.7517C25.5311 22.5737 25.7288 22.4154 25.9365 22.2672C26.1479 22.1177 26.373 21.9884 26.6089 21.8814C26.8449 21.772 27.0897 21.6827 27.3408 21.6146C27.5879 21.5453 27.8451 21.5057 28.112 21.4761C28.2406 21.4662 28.3692 21.4563 28.5077 21.4563H28.8142L28.923 21.4662C29.2097 21.4859 29.4866 21.5255 29.7635 21.5947C30.3174 21.7134 30.8611 21.9211 31.3654 22.198C32.3742 22.7617 33.2345 23.6319 33.7586 24.6801C34.0257 25.2042 34.2135 25.7679 34.3025 26.3513C34.3222 26.4996 34.3421 26.648 34.3519 26.7964L34.3618 26.905L34.3718 27.0138V27.4391C34.3718 27.5082 34.3618 27.627 34.3618 27.6961C34.3519 27.8545 34.3322 28.0226 34.3124 28.1808C34.2927 28.3389 34.263 28.4971 34.2333 28.6554C34.2029 28.8115 34.1666 28.9666 34.1245 29.1201C34.0436 29.4322 33.9445 29.7393 33.8277 30.0399C33.5868 30.6388 33.2747 31.2065 32.8982 31.7309C32.1369 32.7791 31.0985 33.6295 29.9118 34.1734C29.3185 34.4404 28.6955 34.6382 28.0528 34.737C27.7362 34.7964 27.4099 34.826 27.0836 34.8359H26.6288H26.5891C26.414 34.8358 26.239 34.8259 26.065 34.8062C25.3728 34.7568 24.6905 34.6282 24.0181 34.4404C23.3555 34.2525 22.7128 33.9856 22.0997 33.669C20.8832 33.0163 19.7857 32.1263 18.9353 31.0483C18.5093 30.5135 18.1382 29.937 17.8277 29.3279C17.5218 28.724 17.2767 28.0914 17.0958 27.4391C16.9178 26.7865 16.809 26.1239 16.7597 25.4514L16.7497 25.3229V24.7592V24.6899V24.4427C16.7597 24.1164 16.7893 23.7703 16.8289 23.4341C16.8684 23.0978 16.9278 22.7517 16.9969 22.4154C17.0662 22.0794 17.1453 21.7431 17.2442 21.4068C17.4291 20.7536 17.6638 20.1156 17.9464 19.4983C18.5099 18.2919 19.2418 17.2139 20.1218 16.3537C20.3394 16.1361 20.5669 15.9382 20.8041 15.7405C21.0432 15.5514 21.2907 15.3733 21.5458 15.2066C21.793 15.0385 22.0601 14.8901 22.3271 14.7516C22.4593 14.6798 22.5945 14.6138 22.7325 14.5538C22.8708 14.4946 23.0096 14.4351 23.1479 14.3759C23.4248 14.2572 23.7115 14.1583 24.0081 14.0693C24.0774 14.0495 24.1566 14.0298 24.2257 14.0001C24.295 13.9803 24.3741 13.9605 24.4433 13.9408C24.5916 13.9012 24.74 13.8617 24.8884 13.832C24.9576 13.8123 25.0367 13.8023 25.1157 13.7826C25.1948 13.7627 25.2642 13.7529 25.3433 13.7331C25.4224 13.7232 25.4916 13.7034 25.5706 13.6936L25.6794 13.6738L25.7981 13.654C25.8772 13.6441 25.9465 13.6342 26.0256 13.6242C26.1146 13.6145 26.1936 13.6045 26.2826 13.5946C26.3519 13.5847 26.4704 13.5749 26.5398 13.5649C26.5891 13.5551 26.6485 13.5551 26.698 13.5451L26.8067 13.5354L26.8562 13.5254H26.9155C27.0045 13.5155 27.0836 13.5155 27.1726 13.5056L27.3012 13.4958H27.4002C27.4693 13.4958 27.5484 13.486 27.6175 13.486C27.9076 13.476 28.1979 13.476 28.4879 13.486C29.0614 13.5056 29.625 13.575 30.1689 13.6738C31.2666 13.8815 32.2951 14.2275 33.2345 14.6922C34.1738 15.1472 35.0047 15.7109 35.7364 16.324C35.7859 16.3635 35.8254 16.4031 35.8748 16.4427C35.9143 16.4822 35.9639 16.5218 36.0034 16.5614C36.0924 16.6404 36.1715 16.7195 36.2605 16.7986C36.3496 16.8778 36.4287 16.9569 36.5078 17.036C36.5893 17.1161 36.6684 17.1985 36.745 17.2832C37.0517 17.6095 37.3384 17.9358 37.5954 18.2721C38.0733 18.8883 38.4937 19.547 38.8514 20.2398L38.9107 20.3586L38.9701 20.4773C39.0096 20.5564 39.0492 20.6355 39.0788 20.7147C39.1183 20.7938 39.1481 20.8629 39.1877 20.942C39.2173 21.0211 39.2568 21.0905 39.2864 21.1696C39.4051 21.4662 39.5238 21.7529 39.6129 22.0199C39.7612 22.4551 39.8699 22.8408 39.959 23.1769C39.9726 23.2429 40.0109 23.3011 40.066 23.3398C40.1212 23.3784 40.189 23.3945 40.2557 23.3847C40.404 23.3747 40.5126 23.2561 40.5126 23.1078C40.5226 22.7517 40.5126 22.3266 40.4633 21.8419Z" fill="#0C1930"/>
</svg>
