<svg width="48" height="48" viewBox="0 0 48 48" fill="none" xmlns="http://www.w3.org/2000/svg">
<path d="M7.84618 5.90373C7.33296 5.90664 6.84159 6.1118 6.47869 6.47471C6.11579 6.83761 5.91062 7.32898 5.90771 7.84219V21.2829C5.90771 22.3463 6.78279 23.1582 7.78304 23.1582H14.54C17.6027 23.1582 21.8541 22.5324 23.0415 17.0316L24.9168 8.27973C25.1672 7.09173 24.229 5.89819 22.9784 5.89819L7.84618 5.90373ZM33.7274 12.2807C29.1637 12.2807 26.4759 14.2192 25.2259 18.3453L22.0374 28.1595C20.8494 31.4105 18.9746 32.7232 15.5984 32.7232H7.72045C6.72021 32.7232 5.90771 33.5356 5.90771 34.5359V39.5371C5.90771 40.4748 6.65762 41.2873 7.65787 41.2873H39.5406C40.5408 41.2873 41.3533 40.4748 41.3533 39.4745V14.0309C41.3533 13.0932 40.6034 12.2807 39.6032 12.2807H33.7274Z" fill="#0C1930"/>
</svg>
