<svg width="48" height="48" viewBox="0 0 48 48" fill="none" xmlns="http://www.w3.org/2000/svg">
<path d="M40.4047 6H23.1147C23.1147 8.07001 23.937 10.0553 25.4007 11.519C26.8645 12.9826 28.8496 13.805 30.9196 13.805H34.1047V16.8801C34.1075 21.1868 37.5979 24.6774 41.9046 24.6802V7.49991C41.9046 6.67177 41.2333 6 40.4047 6Z" fill="#0C1930"/>
<path d="M31.8519 14.615H14.562C14.5647 18.9217 18.0551 22.4122 22.3619 22.4151H25.5469V25.5001C25.5524 29.8067 29.0453 33.2949 33.3519 33.2949V16.1152C33.3519 15.2868 32.6803 14.615 31.8519 14.615Z" fill="#0C1930"/>
<path d="M23.2893 23.2251H5.99927C5.99927 27.5357 9.49379 31.0301 13.8043 31.0301H16.9992V34.1051C17.002 38.4078 20.4864 41.8968 24.7893 41.905V24.7251C24.7893 23.8967 24.1176 23.2251 23.2893 23.2251Z" fill="#0C1930"/>
</svg>
