<svg width="98" height="98" viewBox="0 0 98 98" fill="none" xmlns="http://www.w3.org/2000/svg">
<path d="M16.3184 41.4894C10.4242 41.4894 5.65381 46.5264 5.65381 52.7496C5.65381 58.973 10.4242 64.0098 16.3184 64.0098C22.2124 64.0098 26.9829 58.973 26.9829 52.7496C26.9829 46.5264 22.2124 41.4894 16.3184 41.4894ZM16.3184 58.3908C13.3713 58.3908 10.9755 55.8613 10.9755 52.7496C10.9755 49.6379 13.3713 47.1084 16.3184 47.1084C19.2654 47.1084 21.6612 49.6379 21.6612 52.7496C21.6612 55.8613 19.2654 58.3908 16.3184 58.3908Z" fill="#007DC1"/>
<path d="M35.0612 56.5328C35.0612 55.6374 36.0789 55.2121 36.6726 55.8389C39.344 58.7042 43.754 63.6291 43.7751 63.6516C43.8388 63.7186 43.9023 63.8306 44.1568 63.9203C44.2629 63.965 44.4325 63.965 44.6232 63.965H49.4361C50.3053 63.965 50.5597 62.9128 50.157 62.3757L42.1851 53.7569L41.761 53.3094C40.8493 52.1677 40.9554 51.7199 41.9942 50.5557L48.3123 43.1013C48.7153 42.564 48.4609 41.5343 47.5704 41.5343H43.2028C43.0332 41.5343 42.9059 41.5343 42.7787 41.5791C42.5243 41.6686 42.4182 41.7582 42.3547 41.8477C42.3334 41.8701 38.8352 45.8548 36.6726 48.2948C36.0789 48.9664 35.0188 48.5187 35.0188 47.6009V34.8184C35.0188 34.1694 34.51 33.9231 34.1071 33.9231H30.5451C29.9304 33.9231 29.6335 34.3484 29.6335 34.7289V63.0696C29.6335 63.7186 30.1424 63.8979 30.5664 63.8979H34.1284C34.6796 63.8979 35.0399 63.4725 35.0399 63.0472V62.7562V56.5328H35.0612Z" fill="#007DC1"/>
<path d="M64.1502 62.9352L63.7686 59.1745C63.7262 58.6596 63.2597 58.3013 62.7722 58.3908C62.4965 58.4357 62.221 58.4581 61.9452 58.4581C59.1042 58.4581 56.7933 56.1074 56.6236 53.1301C56.6236 53.0406 56.6236 52.9287 56.6236 52.8167V48.2052C56.6236 47.6009 57.0477 47.1084 57.62 47.1084H62.3906C62.7298 47.1084 63.2386 46.795 63.2386 46.1457V42.5865C63.2386 41.8925 62.8146 41.5343 62.433 41.5343H57.62C57.0688 41.5343 56.6236 41.1089 56.6023 40.5269V34.8184C56.6023 34.4604 56.3479 33.9231 55.6908 33.9231H52.1499C51.7048 33.9231 51.2808 34.2141 51.2808 34.7962C51.2808 34.7962 51.2808 53.0406 51.2808 53.1301C51.4291 59.2191 56.1572 64.0769 61.9452 64.0769C62.433 64.0769 62.8994 64.0321 63.3659 63.965C63.8747 63.8979 64.2139 63.4501 64.1502 62.9352Z" fill="#007DC1"/>
<path d="M89.8466 58.2118C86.836 58.2118 86.3695 57.0701 86.3695 52.7945C86.3695 52.772 86.3695 52.772 86.3695 52.7496V42.4745C86.3695 42.1162 86.1151 41.5118 85.4366 41.5118H81.8747C81.4296 41.5118 80.9418 41.8925 80.9418 42.4745V42.9445C79.3942 42.0043 77.5919 41.4672 75.6838 41.4672C69.7896 41.4672 65.0193 46.504 65.0193 52.7272C65.0193 58.9506 69.7896 63.9874 75.6838 63.9874C78.3341 63.9874 80.7511 62.9576 82.6169 61.2786C83.6133 62.8903 85.2246 63.9649 87.7478 63.9874C88.1718 63.9874 90.4616 64.0769 90.4616 62.9352V58.9281C90.4616 58.5923 90.2072 58.2118 89.8466 58.2118ZM75.7051 58.3908C72.7579 58.3908 70.3622 55.8613 70.3622 52.7496C70.3622 49.6379 72.7579 47.1084 75.7051 47.1084C78.652 47.1084 81.0479 49.6379 81.0479 52.7496C81.0266 55.8613 78.6309 58.3908 75.7051 58.3908Z" fill="#007DC1"/>
</svg>
