<svg width="48" height="48" viewBox="0 0 48 48" fill="none" xmlns="http://www.w3.org/2000/svg">
<path d="M20.8257 4.61548H26.2422V35.8386H20.8257V4.61548Z" fill="#0C1930"/>
<path fill-rule="evenodd" clip-rule="evenodd" d="M19.5138 43.3684L14.1016 40.135V13.1032C15.7061 11.9561 17.5546 11.1665 19.5138 10.7913V43.3684Z" fill="#0C1930"/>
<path fill-rule="evenodd" clip-rule="evenodd" d="M32.9838 40.1511L27.5673 43.3845V10.8074C29.5267 11.1769 31.3767 11.9609 32.9838 13.1031V40.1511Z" fill="#0C1930"/>
<path fill-rule="evenodd" clip-rule="evenodd" d="M12.7892 6.09863V39.5691L10.2739 38.0655C9.37311 37.4943 8.6363 36.7133 8.13143 35.795C7.62657 34.8766 7.36995 33.8504 7.38529 32.8111V17.0035C7.37271 12.4444 12.7892 6.09863 12.7892 6.09863Z" fill="#0C1930"/>
<path fill-rule="evenodd" clip-rule="evenodd" d="M39.6916 32.7989C39.7081 33.8384 39.4519 34.8651 38.947 35.7837C38.442 36.7023 37.7045 37.4829 36.8031 38.0534L34.2876 39.5569V6.09863C34.2876 6.09863 39.6916 12.4444 39.6916 17.0035V32.7989Z" fill="#0C1930"/>
</svg>
