<svg width="48" height="48" viewBox="0 0 48 48" fill="none" xmlns="http://www.w3.org/2000/svg">
<path d="M38.7159 23.8243L43.6884 20.9859C44.9444 20.2702 45.3722 18.6924 44.641 17.4556C43.919 16.2161 42.3141 15.7939 41.0642 16.5066L32.1596 21.5757C31.5407 21.932 31.1251 22.4978 30.9462 23.1296C30.8914 23.3333 30.8611 23.5369 30.855 23.7405C30.8459 24.0219 30.8853 24.3063 30.9735 24.5818C31.1553 25.1836 31.568 25.7165 32.1626 26.0579L41.0701 31.133C42.32 31.8456 43.922 31.4234 44.6471 30.1899C45.3722 28.9502 44.9444 27.3694 43.6884 26.6538L38.7159 23.8243Z" fill="#0C1930"/>
<path d="M30.0784 29.6719L38.9799 34.738C40.2359 35.4537 40.6607 37.0407 39.9386 38.2772C39.2165 39.5139 37.6146 39.939 36.3615 39.2204L31.3769 36.382V42.0559C31.3769 43.4841 30.2058 44.6428 28.7557 44.6428C27.3054 44.6428 26.1375 43.4871 26.1375 42.0559V31.9117C26.1375 30.5493 27.2023 29.4295 28.5615 29.3336C29.0712 29.2917 29.599 29.3966 30.0784 29.6719Z" fill="#0C1930"/>
<path d="M25.0057 28.4622L28.7069 24.8154C28.8131 24.7105 28.8981 24.504 28.8981 24.3604V24.0908V23.5518V23.2854C28.8981 23.1356 28.8131 22.9291 28.7069 22.8243L25.0057 19.1774C24.8994 19.0696 24.693 18.9858 24.5415 18.9858H24.2715H23.7253H23.4522C23.3036 18.9858 23.0943 19.0696 22.988 19.1774L19.2898 22.8243C19.1836 22.9291 19.0986 23.1356 19.0986 23.2854V23.5518V24.0908V24.3604C19.0986 24.5069 19.1836 24.7135 19.2898 24.8154L22.9911 28.4622C23.0972 28.5701 23.3067 28.6568 23.4553 28.6568H23.7284H24.2744H24.5415C24.6962 28.6568 24.8994 28.5701 25.0057 28.4622Z" fill="#0C1930"/>
<path d="M17.9216 17.9708L9.01716 12.8987C7.76416 12.1831 7.33637 10.6051 8.06147 9.36259C8.78657 8.12601 10.3885 7.70083 11.6384 8.41644L16.6262 11.2609V5.58396C16.6262 4.15874 17.7973 3 19.2474 3C20.6916 3 21.8657 4.15874 21.8657 5.58396V15.7282C21.8657 17.0905 20.7978 18.2103 19.4417 18.3092C18.932 18.3511 18.401 18.2432 17.9216 17.9708Z" fill="#0C1930"/>
<path d="M30.0784 17.9708C29.6021 18.2432 29.0712 18.3511 28.5615 18.3092C27.2023 18.2103 26.1343 17.0905 26.1375 15.7282V5.58396C26.1375 4.15874 27.3054 3 28.7557 3C30.2058 3 31.3769 4.15874 31.3769 5.58396V11.2609L36.3616 8.41644C37.6146 7.70383 39.2165 8.12601 39.9386 9.36259C40.6607 10.6022 40.2329 12.1831 38.9799 12.8987L30.0784 17.9708Z" fill="#0C1930"/>
<path d="M17.9215 29.6719C18.3979 29.3966 18.9288 29.2917 19.4416 29.3336C20.7977 29.4295 21.8656 30.5493 21.8626 31.9117V42.0559C21.8626 43.4841 20.6884 44.6428 19.2443 44.6428C17.7941 44.6428 16.623 43.4871 16.623 42.0559V36.382L11.6353 39.2204C10.3854 39.936 8.78347 39.5108 8.05838 38.2772C7.33631 37.0407 7.7641 35.4537 9.01709 34.738L17.9215 29.6719Z" fill="#0C1930"/>
<path d="M17.1449 23.7405C17.151 24.0219 17.1146 24.3063 17.0266 24.5818C16.8386 25.1836 16.4319 25.7196 15.8282 26.0579L6.92982 31.133C5.67379 31.8456 4.07493 31.4234 3.35287 30.1899C2.62777 28.9502 3.05555 27.3694 4.31158 26.6538L9.28717 23.8243L4.31461 20.9859C3.05858 20.2702 2.62777 18.6924 3.3559 17.4556C4.07493 16.2161 5.67683 15.7939 6.93285 16.5066L15.8312 21.5757C16.4562 21.932 16.8749 22.4978 17.0508 23.1296C17.1085 23.3333 17.1358 23.5369 17.1449 23.7405Z" fill="#0C1930"/>
</svg>
