<svg width="48" height="48" viewBox="0 0 48 48" fill="none" xmlns="http://www.w3.org/2000/svg">
<path d="M6 42H42V6H6V42Z" fill="#0C1930"/>
<path d="M20.0114 15.1075L18.8973 16.4602C17.9419 15.7122 17.3371 15.5055 16.4617 15.5055C15.7762 15.5055 15.2875 15.7233 15.1394 16.079V16.5394C15.2323 16.7357 15.459 16.8582 15.7938 16.9536C16.0164 17.0177 16.4137 17.113 16.9871 17.2403C18.762 17.6344 19.6782 18.0677 20.0003 18.9447C20.0003 19.2403 20.0018 20.3992 20.0018 20.6706C19.6134 21.7888 18.4112 22.4928 16.6524 22.4928C15.1089 22.4928 14.0109 22.0948 12.7214 20.9486L13.9148 19.6119C14.5043 20.0892 14.9817 20.4071 15.3797 20.5666C15.7778 20.7419 16.2071 20.8213 16.7005 20.8213C17.3756 20.8213 17.8915 20.6203 18.0588 20.2438V19.6895C17.9387 19.4317 17.6455 19.2794 17.3051 19.1818C17.0833 19.1345 16.6843 19.0392 16.1117 18.9111C14.3754 18.5306 13.5631 18.1149 13.2636 17.3244V15.588C13.6498 14.5725 14.7975 13.8347 16.5098 13.8347C17.9098 13.8347 18.8813 14.1687 20.0114 15.1075Z" fill="white"/>
<path d="M34.9775 14.1045V22.238H33.0824V21.3778C32.6533 22.0786 31.857 22.4927 30.6958 22.4927C28.7704 22.4927 27.814 21.4899 27.814 19.9136V14.1045H29.8836V19.341C29.8836 20.1845 30.3449 20.6938 31.2371 20.6938C32.2704 20.6938 32.9079 20.1051 32.9079 19.0071V14.1045H34.9775Z" fill="white"/>
<path d="M24.9146 28.2273V33.9107H22.845V28.8488C22.845 27.8781 22.4468 27.2886 21.5555 27.2886C20.6488 27.2886 20.1234 27.9582 20.1234 28.9129V33.9107H18.0538V28.8488C18.0538 27.814 17.6245 27.2886 16.7651 27.2886C15.8576 27.2886 15.3323 27.9582 15.3323 28.9129V33.9107H13.2634V25.7764H15.1897V26.6847C15.667 25.9046 16.4464 25.5073 17.5132 25.5073C18.5472 25.5073 19.3274 25.9366 19.7726 26.6991C20.33 25.9046 21.1422 25.5073 22.2082 25.5073C23.927 25.5073 24.9146 26.5566 24.9146 28.2273Z" fill="white"/>
<path d="M29.424 31.0497C29.7475 31.9083 30.4379 32.4145 31.3542 32.4145C32.2592 32.4145 32.9463 31.9083 33.2699 31.0497C33.2699 30.6397 33.2699 29.0699 33.2699 28.6374C32.948 27.7804 32.2608 27.2565 31.3542 27.2565C30.4379 27.2565 29.7459 27.7804 29.424 28.6374C29.424 29.0442 29.424 30.6781 29.424 31.0497ZM35.2771 31.5495C34.6764 33.1578 33.2123 34.1654 31.3542 34.1654C29.4847 34.1654 28.0175 33.1578 27.4167 31.5495V28.1215C28.0175 26.5117 29.4847 25.5073 31.3542 25.5073C33.2123 25.5073 34.6764 26.5117 35.2771 28.1215V31.5495Z" fill="white"/>
</svg>
