<svg width="15" height="17" viewBox="0 0 15 17" fill="none" xmlns="http://www.w3.org/2000/svg">
<path fill-rule="evenodd" clip-rule="evenodd" d="M7.5 0C5.01472 0 3 2.01472 3 4.5C3 6.14065 3.87802 7.57625 5.18982 8.36253C2.17812 9.33662 0 12.1639 0 15.5V16.5C0 16.7761 0.223858 17 0.5 17C0.776142 17 1 16.7761 1 16.5V15.5C1 11.9101 3.91015 9 7.5 9C11.0899 9 14 11.9101 14 15.5V16.5C14 16.7761 14.2239 17 14.5 17C14.7761 17 15 16.7761 15 16.5V15.5C15 12.1639 12.8219 9.33661 9.81017 8.36253C11.122 7.57625 12 6.14064 12 4.5C12 2.01471 9.98524 0 7.5 0ZM7.5 8C9.43296 8 11 6.43296 11 4.5C11 2.56701 9.43296 1 7.5 1C5.567 1 4 2.567 4 4.5C4 6.43296 5.56701 8 7.5 8Z" fill="#0C1930"/>
</svg>
