<svg width="42" height="28" viewBox="0 0 42 28" fill="none" xmlns="http://www.w3.org/2000/svg">
<g clip-path="url(#clip0_703_113334)">
<path d="M12.082 13.007C12.109 13.065 12.192 13.063 12.215 13.003L14.344 7.453C14.3935 7.32405 14.4808 7.21306 14.5945 7.13455C14.7082 7.05605 14.8429 7.01368 14.981 7.013L16.966 7.002C17.077 7.00125 17.1865 7.02744 17.2851 7.07832C17.3837 7.12919 17.4685 7.20324 17.5323 7.2941C17.596 7.38496 17.6367 7.48992 17.6509 7.59998C17.6652 7.71005 17.6525 7.82192 17.614 7.926L12.813 20.888C12.805 20.908 12.647 21.046 12.547 21.123C12.498 21.16 12.439 21.165 12.379 21.148C12.2822 21.1203 12.1929 21.0711 12.1178 21.0041C12.0426 20.9371 11.9836 20.854 11.945 20.761L9.383 14.586C9.3547 14.5236 9.30931 14.4705 9.25208 14.4328C9.19485 14.3951 9.12812 14.3743 9.0596 14.373C8.99108 14.3716 8.92358 14.3897 8.8649 14.4251C8.80622 14.4605 8.75875 14.5118 8.728 14.573L5.516 20.998C5.50965 21.0105 5.49982 21.021 5.48768 21.0281C5.47554 21.0352 5.46161 21.0386 5.44756 21.038C5.43351 21.0374 5.41995 21.0327 5.40849 21.0245C5.39704 21.0164 5.38819 21.0051 5.383 20.992L0.358999 7.929C0.318888 7.82507 0.304691 7.71294 0.317635 7.60229C0.330579 7.49165 0.370274 7.38582 0.433289 7.29395C0.496304 7.20209 0.580744 7.12695 0.679309 7.07504C0.777874 7.02313 0.887598 6.996 0.998999 6.996H3.156C3.44 6.996 3.696 7.172 3.796 7.437L5.924 13.002C5.947 13.062 6.032 13.065 6.058 13.007L8.74 7.169C8.76896 7.10581 8.81545 7.05226 8.87395 7.01472C8.93244 6.97718 9.00049 6.95722 9.07 6.95722C9.13951 6.95722 9.20755 6.97718 9.26605 7.01472C9.32455 7.05226 9.37104 7.10581 9.4 7.169L12.082 13.007ZM36.516 1.746C36.5 1.668 36.333 1.668 36.316 1.746C36.192 2.354 35.933 3.271 35.446 3.758C34.959 4.245 34.042 4.504 33.434 4.628C33.356 4.645 33.356 4.812 33.434 4.828C34.042 4.953 34.959 5.212 35.446 5.698C36.082 6.335 36.301 7.204 36.376 7.726C36.382 7.759 36.486 7.764 36.492 7.731C36.606 7.171 36.866 6.219 37.387 5.699C37.874 5.212 38.791 4.953 39.399 4.828C39.477 4.812 39.477 4.645 39.399 4.628C38.791 4.504 37.874 4.245 37.387 3.758C36.9 3.271 36.641 2.354 36.516 1.746ZM18.407 7.76C18.407 7.38 18.714 7.073 19.093 7.073H21.167C21.547 7.073 21.854 7.38 21.854 7.759V20.459C21.854 20.838 21.546 21.145 21.167 21.145H19.093C18.9111 21.145 18.7366 21.0727 18.6079 20.9441C18.4793 20.8154 18.407 20.6409 18.407 20.459V7.759V7.76ZM27.842 10.705C27.8558 10.6774 27.8623 10.6467 27.861 10.6159C27.8596 10.585 27.8503 10.5551 27.8341 10.5288C27.8178 10.5026 27.7952 10.4809 27.7682 10.4659C27.7412 10.4508 27.7109 10.443 27.68 10.443H23.58C23.4898 10.443 23.4005 10.4252 23.3172 10.3907C23.234 10.3561 23.1583 10.3055 23.0946 10.2417C23.0309 10.1779 22.9803 10.1022 22.9459 10.0188C22.9115 9.93548 22.8939 9.84617 22.894 9.756V7.76C22.894 7.381 23.201 7.074 23.58 7.074H33.036C33.33 7.074 33.724 7.313 33.584 7.571L28.12 17.793L28.119 17.795C28.1046 17.8226 28.0976 17.8535 28.0985 17.8846C28.0995 17.9158 28.1084 17.9461 28.1245 17.9728C28.1405 17.9995 28.1632 18.0216 28.1902 18.0371C28.2173 18.0525 28.2478 18.0608 28.279 18.061H33.274C33.653 18.061 33.96 18.369 33.96 18.748V20.458C33.96 20.838 33.653 21.145 33.274 21.145H23.244C22.914 21.145 22.848 20.665 22.996 20.369L27.842 10.705Z" fill="#325FE8"/>
</g>
<defs>
<clipPath id="clip0_703_113334">
<rect width="42" height="28" fill="white"/>
</clipPath>
</defs>
</svg>
