<svg width="48" height="48" viewBox="0 0 48 48" fill="none" xmlns="http://www.w3.org/2000/svg">
<path d="M6.1731 10.1539C6.1731 7.95534 7.95534 6.1731 10.1539 6.1731H37.8462C40.0447 6.1731 41.8269 7.95534 41.8269 10.1539V37.8462C41.8269 40.0447 40.0447 41.8269 37.8462 41.8269H10.1539C7.95534 41.8269 6.1731 40.0447 6.1731 37.8462V10.1539Z" fill="#0C1930" stroke="#0C1930" stroke-width="0.375"/>
<path d="M37.168 18.4368C37.4928 18.7594 38.1247 18.9202 38.4995 18.9911C38.5077 18.9927 38.5153 18.9963 38.5216 19.0017C38.5279 19.0071 38.5327 19.014 38.5356 19.0218C38.5384 19.0296 38.5392 19.0379 38.5378 19.0461C38.5365 19.0543 38.5329 19.062 38.5277 19.0684C38.5205 19.0769 38.5105 19.0827 38.4995 19.0847C38.1247 19.1556 37.4928 19.3168 37.168 19.6393C36.8617 19.9427 36.6995 20.5157 36.6221 20.8919C36.6201 20.9031 36.6141 20.9131 36.6053 20.9203C36.5964 20.9275 36.5853 20.9313 36.5739 20.9311C36.5626 20.9308 36.5516 20.9265 36.5431 20.9189C36.5346 20.9115 36.529 20.9011 36.5275 20.8899C36.4722 20.5389 36.3288 20.0103 35.9553 19.6393C35.6302 19.3168 34.9986 19.1556 34.6235 19.0851C34.6153 19.0835 34.6077 19.0798 34.6014 19.0744C34.5951 19.0691 34.5902 19.0622 34.5874 19.0543C34.5846 19.0466 34.5838 19.0382 34.5852 19.03C34.5865 19.0219 34.59 19.0142 34.5952 19.0078C34.6025 18.999 34.6127 18.9931 34.6239 18.9911C34.9986 18.9202 35.6302 18.7589 35.9549 18.4368C36.2801 18.1143 36.4431 17.488 36.5144 17.1158C36.5164 17.1049 36.5223 17.095 36.5308 17.0879C36.5395 17.0808 36.5503 17.0769 36.5615 17.0769C36.5727 17.0769 36.5835 17.0808 36.5921 17.0879C36.6007 17.095 36.6065 17.1049 36.6086 17.1158C36.6798 17.488 36.8433 18.1143 37.168 18.4368ZM23.2582 20.9376V30.776C23.2581 30.7954 23.2619 30.8146 23.2693 30.8324C23.2768 30.8503 23.2877 30.8666 23.3015 30.8802C23.3153 30.8939 23.3317 30.9047 23.3497 30.9121C23.3677 30.9194 23.387 30.9231 23.4064 30.9231H25.6123C25.6514 30.9229 25.689 30.9074 25.7168 30.8799C25.7446 30.8524 25.7603 30.815 25.7605 30.776V20.9376C25.7605 20.9182 25.7567 20.8991 25.7492 20.8813C25.7417 20.8634 25.7308 20.8472 25.717 20.8336C25.7032 20.82 25.6869 20.8092 25.669 20.8019C25.651 20.7945 25.6317 20.7909 25.6123 20.7909H23.406C23.3668 20.7909 23.3292 20.8064 23.3015 20.8339C23.2737 20.8613 23.2584 20.8986 23.2582 20.9376ZM26.7024 30.7336C26.6922 30.7537 26.6873 30.7762 26.6884 30.7987C26.6893 30.8212 26.6963 30.843 26.7083 30.8621C26.7204 30.8811 26.7371 30.8968 26.7571 30.9075C26.777 30.9181 26.7994 30.9235 26.8221 30.9231H34.8303C34.8699 30.9233 34.9079 30.9078 34.9361 30.8802C34.9643 30.8526 34.9803 30.815 34.9806 30.7756V28.8495C34.9805 28.83 34.9765 28.8107 34.9689 28.7928C34.9613 28.7748 34.9502 28.7586 34.9363 28.7449C34.9223 28.7312 34.9057 28.7204 34.8875 28.7131C34.8694 28.7059 34.8499 28.7022 34.8303 28.7025H30.7902C30.7672 28.7027 30.7447 28.6969 30.7247 28.6859C30.7047 28.6748 30.6879 28.6587 30.6761 28.6393C30.6642 28.6198 30.6577 28.5975 30.657 28.5748C30.6564 28.552 30.6618 28.5295 30.6726 28.5094L34.8733 20.9839C34.8845 20.9639 34.8901 20.9413 34.8897 20.9184C34.8893 20.8955 34.8828 20.873 34.8708 20.8534C34.8589 20.8338 34.842 20.8177 34.8218 20.8066C34.8016 20.7956 34.7788 20.79 34.7558 20.7905H26.8245C26.785 20.7903 26.747 20.8057 26.7188 20.8332C26.6907 20.8608 26.6747 20.8983 26.6742 20.9376V23.0714C26.6744 23.0908 26.6784 23.1101 26.686 23.128C26.6937 23.1459 26.7048 23.1621 26.7188 23.1757C26.7328 23.1894 26.7492 23.2001 26.7674 23.2074C26.7856 23.2146 26.805 23.2182 26.8245 23.218H30.3483C30.3824 23.2176 30.4153 23.2304 30.4402 23.2536C30.4651 23.2769 30.4799 23.3087 30.4817 23.3426C30.4828 23.365 30.478 23.3873 30.4678 23.4074L26.7024 30.7336ZM22.3318 20.7902H20.0138C19.9837 20.7901 19.9543 20.7992 19.9295 20.8161C19.9047 20.8331 19.8857 20.8571 19.8749 20.885L18.2428 25.1234C18.2392 25.1331 18.2327 25.1415 18.2242 25.1475C18.2157 25.1536 18.2057 25.157 18.1952 25.1573C18.1848 25.1577 18.1745 25.155 18.1657 25.1495C18.1568 25.144 18.1497 25.1361 18.1454 25.1266L16.1968 20.9151C16.1773 20.8723 16.1464 20.8354 16.1074 20.8088C16.0684 20.7821 16.0229 20.7665 15.9756 20.7637H15.9728C15.9244 20.7655 15.8774 20.7806 15.8371 20.8074C15.7969 20.8343 15.765 20.8717 15.7451 20.9155L13.7964 25.1266C13.792 25.1359 13.7849 25.1437 13.7761 25.1491C13.7673 25.1545 13.7571 25.1572 13.7467 25.1569C13.7364 25.1566 13.7264 25.1533 13.7179 25.1474C13.7094 25.1415 13.7028 25.1334 13.699 25.1238L12.0657 20.885C12.055 20.8571 12.0361 20.8331 12.0113 20.8161C11.9866 20.7992 11.9573 20.7901 11.9272 20.7902H9.60962C9.58556 20.7904 9.5619 20.7963 9.54067 20.8076C9.51944 20.8189 9.50125 20.8351 9.48766 20.8548C9.47407 20.8746 9.46548 20.8973 9.46261 20.9211C9.45975 20.9448 9.46269 20.9689 9.4712 20.9913L13.3045 30.8868C13.3083 30.8963 13.3147 30.9046 13.323 30.9105C13.3313 30.9166 13.3412 30.92 13.3515 30.9205C13.3617 30.921 13.372 30.9186 13.3808 30.9134C13.3897 30.9083 13.397 30.9008 13.4016 30.8917L15.7368 26.2559C15.7584 26.2122 15.7917 26.1754 15.8332 26.1497C15.8747 26.124 15.9226 26.1103 15.9715 26.1103C16.0204 26.1103 16.0683 26.124 16.1098 26.1497C16.1513 26.1754 16.1847 26.2122 16.2062 26.2559L18.5419 30.8917C18.5452 30.8985 18.5502 30.9045 18.5561 30.9093C18.5621 30.914 18.5691 30.9174 18.5765 30.9193C18.5839 30.9211 18.5917 30.9213 18.5992 30.9198C18.6067 30.9184 18.6139 30.9153 18.6201 30.9108C18.6283 30.9049 18.6348 30.8967 18.6385 30.8872L22.4702 20.9917C22.4791 20.9693 22.4823 20.9451 22.4796 20.9211C22.4769 20.8972 22.4684 20.8743 22.4548 20.8544C22.4411 20.8345 22.4227 20.8183 22.4013 20.8071C22.3799 20.7958 22.356 20.79 22.3318 20.7902Z" fill="white"/>
</svg>
